
<svg xmlns="http://www.w3.org/2000/svg" width="170" height="54" viewBox="0 0 346 114">
  <path fill="#FFE600" d="M0 57l145-57 201 57-201 57z"/>
  <path fill="#FFE600" d="M128 13l17-13 201 57-201 57-17-13 171-44z" opacity=".55"/>
  <path fill="#000" d="M72 73c-11 0-20-8-20-18 0-10 9-18 20-18s20 8 20 18c0 10-9 18-20 18zm0-28c-6 0-10 4-10 10s4 10 10 10 10-4 10-10-4-10-10-10zm44 27h-11l13-36h11l13 36h-11l-2-6h-11l-2 6zm5-16h7l-3-10h-1l-3 10zm61-3c0 12-8 19-21 19h-12V39h12c13 0 21 7 21 19zm-11 0c0-7-4-10-10-10h-2v20h2c6 0 10-3 10-10zm36 19c-11 0-20-8-20-18 0-10 9-18 20-18s20 8 20 18c0 10-9 18-20 18zm0-28c-6 0-10 4-10 10s4 10 10 10 10-4 10-10-4-10-10-10z"/>
</svg>
